<svg id="Layer_5" enable-background="new 0 0 64 64" height="512" viewBox="0 0 64 64" width="512" xmlns="http://www.w3.org/2000/svg"><g><path d="m12.5 21.793h2v1.414h-2z" transform="matrix(.707 -.707 .707 .707 -11.956 16.136)"/><path d="m13.793 25.5h1.414v2h-1.414z" transform="matrix(.707 -.707 .707 .707 -14.491 18.015)"/><path d="m25 12.382h2v2.236h-2z" transform="matrix(.447 -.894 .894 .447 2.298 30.718)"/><path d="m37 40c0 1.654 1.346 3 3 3h3v-2h-3c-.552 0-1-.449-1-1s.448-1 1-1h7v-2h-7c-1.654 0-3 1.346-3 3z"/><path d="m28.707 43.292c-.834-.833-1.942-1.292-3.121-1.292h-3.586v2h3.586c.645 0 1.251.251 1.707.708.834.833 1.942 1.292 3.121 1.292h2.586v-2h-2.586c-.644 0-1.251-.251-1.707-.708z"/><path d="m26 38h4v2h-4z"/><path d="m43.001 30.931c.756.036 1.444.069 1.999.069v-2c-.528 0-1.183-.032-1.902-.067-2.987-.144-6.704-.325-8.301 1.196-.522.496-.797 1.143-.797 1.871h2c0-.184.05-.303.176-.423.976-.93 4.639-.752 6.825-.646z"/><path d="m39 33h2v2h-2z"/><path d="m43 33h2v2h-2z"/><path d="m58 20h-21.518c-1.321-1.598-3.079-2.8-5.075-3.451.374-.795.593-1.66.593-2.549 0-3.481-2.945-6.317-6.521-5.975-1.134-1.278-2.767-2.025-4.479-2.025-1.586 0-3.067.617-4.184 1.718-.869-.472-1.828-.718-2.816-.718-3.309 0-6 2.691-6 6 0 .748.147 1.495.433 2.2-1.521 1.121-2.433 2.886-2.433 4.8-2.757 0-5 2.243-5 5v28c0 2.757 2.243 5 5 5h52c2.757 0 5-2.243 5-5v-28c0-2.757-2.243-5-5-5zm-21.435 4.252c-.704.055-1.392.122-2.061.201-1.036-2.656-3.585-4.453-6.504-4.453-3.859 0-7 3.14-7 7 0 1.615.546 3.151 1.549 4.392-.174.514-.31 1.063-.401 1.651-.25.023-.486.057-.711.1-1.569-1.672-2.437-3.83-2.437-6.143 0-4.962 4.037-9 9-9 3.955 0 7.39 2.572 8.565 6.252zm-12.972 5.065c-.219-.417-.396-.853-.49-1.317h1.637c-.431.398-.812.837-1.147 1.317zm3.407-3.317h-3.899c.399-1.956 1.943-3.5 3.899-3.899zm2-3.889c1.501.305 2.769 1.28 3.454 2.643-1.238.219-2.395.5-3.454.86zm-18.812-5.653.952-.489-.553-.917c-.39-.646-.587-1.336-.587-2.052 0-2.206 1.794-4 4-4 .859 0 1.688.284 2.398.822l.803.607.603-.807c.769-1.031 1.934-1.622 3.196-1.622 1.276 0 2.489.627 3.243 1.678l.373.519.627-.12c.273-.052.521-.077.757-.077 2.206 0 4 1.794 4 4 0 .746-.218 1.47-.606 2.098-.458-.058-.922-.098-1.394-.098-2.673 0-5.125.961-7.034 2.552l-.941-.941c.248-2.21 2.508-3.764 2.532-3.78l-.557-.831-.555-.832c-.111.074-2.188 1.491-3.061 3.803l-4.678-4.678-1.414 1.414 2.652 2.652c-2.516.829-4.545 2.827-4.652 2.934l1.413 1.415c.026-.026 2.481-2.438 4.904-2.683l2.942 2.942c-1.59 1.908-2.551 4.36-2.551 7.033 0 .472.039.935.097 1.395-.628.387-1.352.605-2.097.605-2.206 0-4-1.794-4-4 0-.038.008-.074.013-.111.01-.069.019-.139.024-.209l.058-.717-.662-.282c-1.478-.631-2.433-2.076-2.433-3.681 0-1.492.838-2.849 2.188-3.542zm-4.188 5.542h.355c.472 1.334 1.396 2.477 2.648 3.198.105 3.217 2.755 5.802 5.997 5.802.885 0 1.748-.217 2.54-.588.409 1.261 1.052 2.433 1.898 3.479-1.246.771-1.828 1.884-2.093 2.678-.289.869-1.023 1.431-1.868 1.431h-6.477c-2.206 0-4 1.794-4 4s1.794 4 4 4h.96c1.53 0 3.092.506 4.641 1.504 3.497 2.253 12.633 2.496 16.399 2.496 3.756 0 9.442-.232 14.138-.884 6.129-.852 8.862-2.121 8.862-4.116 0-2.206-1.794-4-4-4h-5v2h5c1.103 0 2 .897 2.001 1.99-.39 1.392-9.648 3.01-21.001 3.01-7.362 0-13.231-.834-15.316-2.178-1.877-1.209-3.803-1.822-5.724-1.822h-.96c-1.103 0-2-.897-2-2s.897-2 2-2h6.477c1.695 0 3.209-1.125 3.767-2.801.49-1.48 1.72-2.199 3.756-2.199h1 13v-2h-12.785c1.222-5.845 8.19-7 20.785-7 1.086 0 1.877.791 2.793 1.707 1.074 1.075 2.293 2.293 4.207 2.293 2.43 0 5 2.57 5 5 0 .807-2.543 2-8 2v2c3.007 0 10-.39 10-4 0-3.533-3.468-7-7-7-1.086 0-1.877-.791-2.793-1.707-1.074-1.075-2.293-2.293-4.207-2.293-2.21 0-4.351.027-6.383.124-.201-.746-.48-1.454-.822-2.124h20.205c1.654 0 3 1.346 3 3v27h-58v-27c0-1.654 1.346-3 3-3zm52 34h-52c-1.302 0-2.402-.839-2.816-2h57.631c-.413 1.161-1.513 2-2.815 2z"/><path d="m27.882 29.5h2.236v2h-2.236z" transform="matrix(.894 -.447 .447 .894 -10.578 16.189)"/><path d="m57 40h2v2h-2z"/><path d="m57 44h2v2h-2z"/><path d="m57 48h2v2h-2z"/></g></svg>